<svg width="544" height="180" viewBox="0 0 272 90" fill="none" xmlns="http://www.w3.org/2000/svg">
<path d="M0 90V0H20.7311V6.89063H7.84422V83.1094H20.7311V90H0Z" fill="white"/>
<path d="M56.7393 9V81H48.0546V18.1406H47.6344L30.1249 29.8125V20.9531L48.0546 9H56.7393Z" fill="white"/>
<path d="M105.1 81V74.6719L128.773 48.6563C131.551 45.6094 133.839 42.9609 135.637 40.7109C137.434 38.4375 138.765 36.3047 139.629 34.3125C140.516 32.2969 140.96 30.1875 140.96 27.9844C140.96 25.4531 140.353 23.2617 139.139 21.4102C137.948 19.5586 136.314 18.1289 134.236 17.1211C132.158 16.1133 129.824 15.6094 127.232 15.6094C124.477 15.6094 122.073 16.1836 120.018 17.332C117.987 18.457 116.411 20.0391 115.291 22.0781C114.193 24.1172 113.645 26.5078 113.645 29.25H105.38C105.38 25.0313 106.349 21.3281 108.287 18.1406C110.225 14.9531 112.863 12.4687 116.201 10.6875C119.563 8.90625 123.333 8.01563 127.512 8.01563C131.715 8.01563 135.438 8.90625 138.683 10.6875C141.928 12.4687 144.473 14.8711 146.317 17.8945C148.162 20.918 149.084 24.2813 149.084 27.9844C149.084 30.6328 148.605 33.2227 147.648 35.7539C146.714 38.2617 145.08 41.0625 142.745 44.1563C140.434 47.2266 137.224 50.9766 133.115 55.4062L117.007 72.7031V73.2656H150.345V81H105.1Z" fill="white"/>
<path d="M216.775 81.9844C212.153 81.9844 208.032 81.1875 204.414 79.5937C200.818 78 197.959 75.7852 195.834 72.9492C193.733 70.0898 192.589 66.7734 192.402 63H201.227C201.414 65.3203 202.207 67.3242 203.608 69.0117C205.009 70.6758 206.842 71.9648 209.106 72.8789C211.371 73.793 213.88 74.25 216.635 74.25C219.717 74.25 222.448 73.7109 224.83 72.6328C227.211 71.5547 229.079 70.0547 230.433 68.1328C231.787 66.2109 232.464 63.9844 232.464 61.4531C232.464 58.8047 231.81 56.4727 230.503 54.457C229.195 52.418 227.281 50.8242 224.76 49.6758C222.238 48.5273 219.157 47.9531 215.515 47.9531H209.772V40.2187H215.515C218.363 40.2187 220.861 39.7031 223.009 38.6719C225.18 37.6406 226.872 36.1875 228.086 34.3125C229.324 32.4375 229.942 30.2344 229.942 27.7031C229.942 25.2656 229.405 23.1445 228.332 21.3398C227.258 19.5352 225.74 18.1289 223.779 17.1211C221.841 16.1133 219.553 15.6094 216.915 15.6094C214.441 15.6094 212.106 16.0664 209.912 16.9805C207.74 17.8711 205.966 19.1719 204.589 20.8828C203.211 22.5703 202.464 24.6094 202.348 27H193.943C194.083 23.2266 195.215 19.9219 197.34 17.0859C199.464 14.2266 202.242 12 205.674 10.4063C209.13 8.8125 212.923 8.01563 217.055 8.01563C221.491 8.01563 225.297 8.91797 228.472 10.7227C231.647 12.5039 234.086 14.8594 235.791 17.7891C237.495 20.7188 238.347 23.8828 238.347 27.2813C238.347 31.3359 237.285 34.793 235.16 37.6523C233.059 40.5117 230.199 42.4922 226.581 43.5938V44.1563C231.11 44.9063 234.647 46.8398 237.191 49.957C239.736 53.0508 241.008 56.8828 241.008 61.4531C241.008 65.3672 239.946 68.8828 237.822 72C235.72 75.0937 232.849 77.5313 229.207 79.3125C225.565 81.0938 221.421 81.9844 216.775 81.9844Z" fill="white"/>
<path d="M272 0V90H251.269V83.1094H264.156V6.89063H251.269V0H272Z" fill="white"/>
</svg>
